<?xml version="1.0" encoding="UTF-8"?>
<svg xmlns="http://www.w3.org/2000/svg" width="36" height="36" viewBox="10 10 16 16" fill="none">
  <path
    fill-rule="currentColor"
    clip-rule="currentColor"
    d="M23.88 16.5938C23.6 15.75 23.1333 15 22.5733 14.3438C20.52 12.0937 17.2533 11.625 14.7333 13.2188C15.48 13.9688 16.2267 14.625 16.2267 14.625L16.88 15.1875L11 16.4062L12.2133 10.5L12.8667 11.1562C12.9133 11.2031 12.9775 11.2734 13.0577 11.3613C13.2983 11.625 13.6833 12.0469 14.1733 12.4687C17.0667 10.5937 20.9867 11.0625 23.32 13.6875C24.0666 14.4375 24.5333 15.375 24.8133 16.3125L23.88 16.5938ZM24.9066 17.5312L23.9733 17.625C24.0666 17.9062 24.0666 18.1875 24.0666 18.4688C24.0666 18.75 24.0666 19.125 23.9733 19.4062L24.9066 19.5938C24.9999 19.2188 24.9999 18.8438 24.9999 18.4688C24.9999 18.1875 24.9999 17.8125 24.9066 17.5312ZM12.5866 23.0625L13.3333 22.4062C13.7066 22.875 14.0799 23.25 14.5466 23.625L14.0799 24.375C13.5199 24 13.0533 23.5312 12.5866 23.0625ZM15.4799 24.0938L15.1066 24.9375C15.5733 25.125 16.0399 25.3125 16.5066 25.4062C16.5999 25.4062 16.6699 25.4297 16.7399 25.4531C16.8099 25.4766 16.8799 25.5 16.9733 25.5L17.0666 24.5625C16.8799 24.5625 16.7866 24.5625 16.5999 24.4688C16.5152 24.4404 16.4219 24.412 16.3201 24.381L16.32 24.381L16.3199 24.381C16.0853 24.3096 15.8053 24.2245 15.4799 24.0938ZM18.1866 24.5625V25.5C18.8399 25.5 19.4933 25.3125 20.1466 25.125L19.8666 24.2812C19.3999 24.4688 18.8399 24.5625 18.1866 24.5625ZM21.36 24.6562L20.8933 23.8125C21.36 23.5312 21.8267 23.1562 22.2933 22.7812L22.9467 23.4375C22.48 23.9062 21.92 24.375 21.36 24.6562ZM22.9467 21.9375L23.6933 22.5C24.0667 21.9375 24.3467 21.375 24.6267 20.7187L23.7867 20.4375C23.5067 21 23.2267 21.4687 22.9467 21.9375Z"
    fill="black"
  />
</svg>
