<?xml version="1.0" encoding="UTF-8"?>
<svg xmlns="http://www.w3.org/2000/svg" width="18" height="18" fill="none">
  <g fill="currentColor" clip-path="url(#clip_bag_svg_1)">
    <path d="M13.808 8.869a.438.438 0 0 1-.437-.438V5.5a4.372 4.372 0 0 0-4.366-4.37 4.372 4.372 0 0 0-4.363 4.37v2.926a.438.438 0 0 1-.874 0V5.5A5.246 5.246 0 0 1 9.005.25c2.89 0 5.24 2.355 5.24 5.249V8.43a.438.438 0 0 1-.437.438Z"/>
    <path d="M12.792 17.75H5.21c-1.462 0-1.944-.795-2.179-1.393C2.15 14.109.34 6.365.261 6.037A.44.44 0 0 1 .686 5.5h3.29a.438.438 0 0 1 0 .875H1.24c.434 1.831 1.878 7.806 2.607 9.661.16.405.41.837 1.364.837h7.582c.954 0 1.204-.432 1.364-.837.728-1.855 2.17-7.83 2.607-9.66H6.818a.438.438 0 0 1 0-.876h10.494c.134 0 .259.062.342.167.084.104.113.24.084.372-.078.327-1.888 8.07-2.77 10.319-.235.598-.717 1.393-2.18 1.393"/>
  </g>
  <defs>
    <clipPath id="clip_bag_svg_1">
      <path fill="#fff" d="M.25.25h17.5v17.5H.25z"/>
    </clipPath>
  </defs>
</svg>
