<?xml version="1.0" encoding="UTF-8"?>
<svg xmlns="http://www.w3.org/2000/svg" width="36" height="36" viewBox="10 10 16 16" fill="none">
  <path
    d="M10 19.886V14.0829H13.5233V15.3679H11.5337V16.3627H13.4404V17.6062H11.5337V19.886H10Z"
    fill="black"
  />
  <path
    d="M13.5647 19.886L15.5544 14.1244H17.544L19.5337 19.886H17.9585L17.6684 18.8498H15.43L15.1399 19.886H13.5647ZM15.7616 17.6891H17.3368L16.7565 15.8238C16.7565 15.7824 16.715 15.658 16.6736 15.5337C16.6321 15.4093 16.5907 15.2435 16.5492 15.0363C16.5078 15.1606 16.4663 15.3264 16.4663 15.4508C16.4663 15.5751 16.3834 15.6995 16.3419 15.8238L15.7616 17.6891Z"
    fill="black"
  />
  <path
    d="M26 20.5492H24.6736L24.0518 19.7202C23.886 19.8031 23.7202 19.886 23.5129 19.9275C23.3057 19.9689 23.0984 20.0104 22.8497 20.0104C22.5181 20.0104 22.1865 19.9689 21.8964 19.886C21.6062 19.8031 21.3161 19.6788 21.0673 19.513C20.6528 19.2228 20.3212 18.8912 20.114 18.4352C19.9067 17.9793 19.7409 17.5233 19.7409 17.0259C19.7409 16.6114 19.8238 16.2383 19.9896 15.8653C20.0725 15.4508 20.3212 15.1192 20.6114 14.829C20.9015 14.5389 21.2332 14.3316 21.6062 14.2073C21.9793 14.0415 22.3938 14 22.8083 14C23.2228 14 23.6373 14.0829 24.0104 14.2073C24.3834 14.3731 24.715 14.5803 25.0052 14.8705C25.2953 15.1606 25.5026 15.4922 25.6684 15.8653C25.8342 16.2383 25.9171 16.6114 25.9171 17.0259C25.9171 17.4404 25.8342 17.8549 25.6684 18.228C25.5026 18.601 25.2953 18.9326 24.9637 19.1814L26 20.5492ZM23.7616 17.5648L24.0518 17.9793C24.1347 17.8549 24.2176 17.6891 24.2591 17.5648C24.3005 17.399 24.342 17.2332 24.342 17.0674C24.342 16.5699 24.2176 16.1554 23.9275 15.8238C23.6373 15.4922 23.2642 15.3264 22.8497 15.3264C22.4352 15.3264 22.0622 15.4922 21.772 15.8238C21.4819 16.1554 21.3575 16.57 21.3575 17.0259C21.3575 17.5233 21.4819 17.9378 21.772 18.2694C22.0622 18.601 22.4352 18.7668 22.8497 18.7668C22.8912 18.7668 22.9741 18.7668 23.057 18.7254C23.1399 18.7254 23.1813 18.6839 23.2642 18.6425L22.4352 17.6062H23.7616V17.5648Z"
    fill="black"
  />
</svg>
