<svg version="1.1" xmlns="http://www.w3.org/2000/svg" xmlns:xlink="http://www.w3.org/1999/xlink" width="26" height="26" viewBox="0 0 26 26"><path id="Chat" d="M23.765,6.395 C22.756,7.200 21.587,7.483 20.315,7.420 C20.219,7.416 20.093,7.459 20.024,7.525 C19.601,7.931 19.189,8.348 18.777,8.764 C18.629,8.914 18.480,9.051 18.246,8.956 C18.014,8.863 17.993,8.668 17.995,8.452 C18.000,7.907 17.990,7.362 18.000,6.818 C18.002,6.668 17.949,6.589 17.834,6.502 C16.939,5.825 16.403,4.951 16.440,3.799 C16.473,2.809 16.946,2.032 17.702,1.421 C18.388,0.864 19.184,0.556 20.057,0.439 C20.120,0.431 20.181,0.410 20.243,0.394 C20.569,0.394 20.895,0.394 21.220,0.394 C21.630,0.492 22.051,0.556 22.446,0.693 C23.458,1.045 24.272,1.653 24.743,2.644 C25.360,3.943 24.972,5.432 23.765,6.395 zM23.101,1.892 C22.234,1.287 21.264,1.091 20.228,1.207 C19.256,1.315 18.408,1.687 17.770,2.452 C17.061,3.301 17.019,4.377 17.688,5.256 C17.905,5.541 18.194,5.782 18.484,5.998 C18.690,6.151 18.792,6.306 18.781,6.561 C18.767,6.901 18.778,7.242 18.778,7.582 C18.798,7.594 18.817,7.606 18.837,7.618 C19.085,7.362 19.343,7.116 19.576,6.848 C19.769,6.626 19.984,6.583 20.269,6.613 C21.325,6.726 22.311,6.512 23.172,5.867 C24.631,4.774 24.595,2.935 23.101,1.892 zM22.310,4.299 C22.099,4.305 21.915,4.138 21.903,3.930 C21.891,3.712 22.073,3.520 22.292,3.518 C22.501,3.516 22.678,3.688 22.684,3.900 C22.691,4.111 22.521,4.292 22.310,4.299 zM20.731,4.298 C20.512,4.299 20.332,4.110 20.342,3.890 C20.352,3.679 20.532,3.513 20.744,3.519 C20.956,3.526 21.125,3.703 21.121,3.914 C21.117,4.126 20.943,4.298 20.731,4.298 zM19.170,4.298 C18.949,4.299 18.769,4.112 18.779,3.891 C18.789,3.680 18.967,3.514 19.180,3.519 C19.391,3.525 19.561,3.702 19.559,3.913 C19.556,4.123 19.380,4.298 19.170,4.298 zM17.105,12.258 C16.821,14.323 16.030,16.181 14.697,17.796 C14.548,17.977 14.381,18.146 14.210,18.308 C14.046,18.464 13.867,18.604 13.681,18.762 C14.001,19.497 14.409,20.184 15.126,20.574 C15.519,20.787 16.001,20.848 16.450,20.947 C17.794,21.244 19.127,21.580 20.358,22.214 C21.888,23.002 21.927,23.477 21.910,25.010 C21.907,25.259 21.747,25.388 21.469,25.390 C20.948,25.393 20.427,25.391 19.906,25.391 C13.468,25.391 7.030,25.390 0.591,25.395 C0.354,25.395 0.162,25.348 0.025,25.147 C0.025,24.789 0.025,24.431 0.025,24.073 C0.040,24.020 0.064,23.967 0.070,23.913 C0.123,23.425 0.350,23.041 0.737,22.740 C1.330,22.280 2.006,21.985 2.702,21.729 C3.804,21.326 4.936,21.032 6.093,20.843 C6.536,20.770 6.909,20.582 7.232,20.278 C7.683,19.853 8.012,19.345 8.250,18.788 C7.935,18.481 7.604,18.193 7.312,17.869 C6.569,17.045 6.040,16.092 5.615,15.069 C5.242,14.169 4.955,13.253 4.834,12.286 C4.683,11.075 4.664,9.866 4.994,8.679 C5.757,5.935 7.897,4.599 10.117,4.346 C11.677,4.168 13.150,4.424 14.489,5.277 C15.484,5.912 16.198,6.778 16.660,7.873 C17.262,9.295 17.311,10.767 17.105,12.258 zM16.326,9.565 C16.053,7.649 15.035,6.258 13.228,5.503 C12.068,5.018 10.856,4.950 9.636,5.223 C8.000,5.589 6.776,6.492 6.058,8.038 C5.500,9.239 5.464,10.505 5.568,11.789 C5.657,12.885 5.962,13.922 6.403,14.928 C6.988,16.261 7.744,17.455 8.971,18.295 C9.167,18.429 9.205,18.609 9.111,18.829 C8.845,19.454 8.507,20.035 8.060,20.549 C7.552,21.133 6.930,21.499 6.153,21.634 C5.426,21.761 4.704,21.934 3.993,22.133 C3.093,22.385 2.220,22.711 1.414,23.206 C0.869,23.540 0.794,24.030 0.818,24.599 C7.587,24.599 14.339,24.599 21.107,24.599 C21.187,23.961 21.022,23.457 20.433,23.151 C20.210,23.035 19.995,22.900 19.767,22.796 C18.516,22.227 17.199,21.873 15.850,21.640 C15.231,21.532 14.680,21.317 14.216,20.888 C13.583,20.302 13.150,19.582 12.817,18.796 C12.722,18.571 12.805,18.400 12.999,18.274 C13.565,17.904 14.022,17.422 14.427,16.887 C14.951,16.194 15.320,15.422 15.659,14.625 C16.354,12.995 16.575,11.306 16.326,9.565 z" fill="#757575" /></svg>